<svg xmlns="http://www.w3.org/2000/svg" viewBox="0 0 500 400" fill="none">
  <defs>
    <linearGradient id="bg" x1="0" y1="0" x2="1" y2="1">
      <stop offset="0%" stop-color="#E8F4FD"/>
      <stop offset="100%" stop-color="#C0E8FF"/>
    </linearGradient>
    <linearGradient id="bar" x1="0" y1="1" x2="0" y2="0">
      <stop offset="0%" stop-color="#4D94E4"/>
      <stop offset="100%" stop-color="#1671DA"/>
    </linearGradient>
    <filter id="s1"><feDropShadow dx="0" dy="6" stdDeviation="12" flood-opacity="0.08"/></filter>
    <filter id="s2"><feDropShadow dx="0" dy="3" stdDeviation="8" flood-opacity="0.06"/></filter>
  </defs>

  <ellipse cx="260" cy="200" rx="210" ry="180" fill="url(#bg)" opacity="0.5"/>

  <rect x="115" y="60" width="270" height="240" rx="16" fill="white" filter="url(#s1)"/>
  <rect x="115" y="60" width="270" height="46" rx="16" fill="#1671DA"/>
  <rect x="115" y="90" width="270" height="16" fill="#1671DA"/>
  <circle cx="140" cy="83" r="5" fill="rgba(255,255,255,0.4)"/>
  <circle cx="158" cy="83" r="5" fill="rgba(255,255,255,0.4)"/>
  <circle cx="176" cy="83" r="5" fill="rgba(255,255,255,0.4)"/>

  <rect x="140" y="125" width="100" height="8" rx="4" fill="#E8F4FD"/>
  <rect x="140" y="142" width="70" height="8" rx="4" fill="#F0F7FF"/>

  <rect x="140" y="195" width="26" height="60" rx="5" fill="#C0E8FF"/>
  <rect x="178" y="175" width="26" height="80" rx="5" fill="#4D94E4"/>
  <rect x="216" y="185" width="26" height="70" rx="5" fill="url(#bar)"/>
  <rect x="254" y="165" width="26" height="90" rx="5" fill="#1671DA"/>
  <rect x="292" y="180" width="26" height="75" rx="5" fill="#4D94E4"/>
  <rect x="330" y="190" width="26" height="65" rx="5" fill="#C0E8FF"/>

  <rect x="340" y="35" width="115" height="60" rx="10" fill="white" filter="url(#s2)"/>
  <circle cx="368" cy="55" r="11" fill="#E8F4FD"/>
  <path d="M364 55 L367 58 L373 52" stroke="#1671DA" stroke-width="2" fill="none" stroke-linecap="round" stroke-linejoin="round"/>
  <rect x="388" y="51" width="50" height="6" rx="3" fill="#E8F4FD"/>
  <rect x="388" y="64" width="35" height="6" rx="3" fill="#F0F7FF"/>

  <rect x="35" y="170" width="95" height="55" rx="10" fill="white" filter="url(#s2)"/>
  <rect x="55" y="186" width="55" height="6" rx="3" fill="#E8F4FD"/>
  <rect x="55" y="200" width="35" height="6" rx="3" fill="#F0F7FF"/>

  <rect x="200" y="285" width="120" height="50" rx="10" fill="white" filter="url(#s2)"/>
  <rect x="218" y="300" width="50" height="6" rx="3" fill="#E8F4FD"/>
  <rect x="218" y="313" width="80" height="6" rx="3" fill="#F0F7FF"/>

  <g transform="translate(215,270)" opacity="0.1">
    <path d="M0 0 C-5-20 5-35 20-35 35-35 45-20 40 0L35 30C33 42 22 38 20 30L15 0 10 30C8 42-3 38-5 30Z" fill="#1671DA"/>
  </g>

  <circle cx="75" cy="95" r="6" fill="#4D94E4" opacity="0.15"/>
  <circle cx="435" cy="270" r="8" fill="#4D94E4" opacity="0.12"/>
  <circle cx="400" cy="340" r="5" fill="#C0E8FF"/>
  <circle cx="85" cy="310" r="4" fill="#C0E8FF"/>
  <circle cx="460" cy="150" r="3" fill="#4D94E4" opacity="0.2"/>
</svg>
